<?xml version="1.0" encoding="UTF-8"?><svg id="Layer_1" xmlns="http://www.w3.org/2000/svg" viewBox="0 0 19.96 19.98"><defs><style>.cls-1{fill:#bfbfbf;stroke-width:0px;}</style></defs><g id="_7aIh3E.tif"><path class="cls-1" d="m19.42,2.26s-.09-.01-.14-.01h-5.74v-.12c0-.48,0-.97-.01-1.45,0-.08,0-.15-.02-.22-.07-.27-.3-.45-.58-.46h-5.82c-.07,0-.14,0-.2.01-.27.06-.46.28-.49.55v1.69H.67c-.14,0-.27.02-.4.11-.13.09-.22.21-.26.37,0,.04,0,.24,0,.28.06.29.3.49.61.49h1.93s.01.09.01.13c.04.63.07,1.26.11,1.89.03.63.07,1.26.11,1.89.03.63.07,1.26.1,1.89.04.63.07,1.25.11,1.87.03.61.07,1.23.1,1.84.04.63.07,1.26.11,1.89.04.65.07,1.3.11,1.94.03.62.07,1.23.11,1.84.01.24.02.48.04.71.01.18.08.33.23.44.06.05.14.07.21.11.04.02.07.03.11.04h11.94s.08-.03.12-.04c.26-.08.43-.29.44-.56.03-.49.06-.98.09-1.46.03-.64.07-1.29.1-1.93.03-.52.06-1.04.09-1.56.04-.64.07-1.29.11-1.94.02-.4.04-.79.07-1.19.03-.65.07-1.3.11-1.95.02-.41.04-.81.06-1.22.04-.64.07-1.28.11-1.92.03-.51.06-1.03.09-1.55.02-.36.04-.73.06-1.1,0-.01,0-.03.01-.06h1.94c.26-.01.49-.16.57-.4.15-.44-.14-.79-.5-.84ZM7.67,1.26c.08-.02,4.51-.03,4.62-.01v.98h-.01s-.01.02-.01.02h-4.59c-.02-.07-.03-.88-.01-.99Zm7.63,17.44h0s-.01.02-.01.02H4.7s-.02,0-.04-.01c-.29-5.07-.57-10.14-.86-15.21h12.34c.02.09-.8,14.94-.84,15.2Z"/><path class="cls-1" d="m10.6,5.41v11.48c0,.31-.17.56-.46.63-.41.11-.76-.19-.78-.55-.01-.05,0-.1,0-.15V5.43c0-.08,0-.16.02-.23.06-.28.33-.47.61-.46.3,0,.55.21.6.5.01.06.01.11.01.17Z"/><path class="cls-1" d="m14.32,5.43c-.02.42-.05.85-.07,1.27-.03.62-.07,1.23-.11,1.84-.02.52-.05,1.04-.08,1.56-.04.64-.08,1.27-.11,1.91-.03.48-.06.96-.08,1.44-.05.79-.09,1.57-.14,2.36-.02.37-.04.75-.06,1.13-.02.36-.3.61-.66.6-.34-.01-.6-.3-.59-.61.04-.67.08-1.29.11-1.91.04-.63.07-1.25.11-1.88.03-.63.07-1.26.11-1.89.02-.39.04-.78.06-1.17.04-.63.07-1.25.11-1.87.03-.64.07-1.29.11-1.93.02-.32.03-.64.05-.96.02-.31.27-.56.59-.58.3-.03.58.19.64.49,0,.07,0,.13,0,.2Z"/><path class="cls-1" d="m7.51,16.89c.01.3-.16.55-.44.63-.41.12-.76-.17-.8-.51-.01-.17-.02-.34-.03-.51-.04-.63-.07-1.26-.11-1.89-.04-.86-.1-1.72-.14-2.58-.04-.62-.07-1.25-.11-1.88-.03-.63-.07-1.26-.11-1.88-.03-.63-.07-1.26-.1-1.88-.02-.29-.04-.57-.05-.86-.01-.11-.01-.22.01-.33.07-.28.33-.48.62-.46.3.01.54.22.59.51.02.12.02.24.03.36.03.53.06,1.06.09,1.59.03.63.07,1.26.11,1.89.03.63.07,1.26.1,1.89,0,.06.01.12.01.18.05.86.1,1.72.15,2.58.04.82.09,1.63.14,2.44.01.24.03.47.04.71Z"/></g></svg>