<?xml version="1.0" encoding="UTF-8"?><svg id="Layer_1" xmlns="http://www.w3.org/2000/svg" viewBox="0 0 20 20"><defs><style>.cls-1{fill:none;stroke:#fff;stroke-linecap:round;stroke-linejoin:round;}.cls-2{fill:#fff;stroke-width:0px;}</style></defs><path class="cls-2" d="m10,1c4.96,0,9,4.04,9,9s-4.04,9-9,9S1,14.96,1,10,5.04,1,10,1m0-1C4.48,0,0,4.48,0,10s4.48,10,10,10,10-4.48,10-10S15.52,0,10,0h0Z"/><polyline class="cls-1" points="10 2.78 10 10 16.5 10"/><polygon class="cls-2" points="9.59 3.11 9.66 3.18 10 2.81 10.34 3.18 10.41 3.11 10 2.67 9.59 3.11"/></svg>