<?xml version="1.0" encoding="UTF-8"?><svg id="Layer_1" xmlns="http://www.w3.org/2000/svg" viewBox="0 0 20 18.81"><defs><style>.cls-1{opacity:.25;}.cls-2,.cls-3{stroke-width:0px;}.cls-3{fill:#fff;}</style></defs><g id="WD6MJD" class="cls-1"><path class="cls-3" d="m10.14,18.81c.07-.03.1-.03.11-.05.31-.3.63-.59.93-.89,2.2-2.14,4.4-4.27,6.23-6.75,1.15-1.56,2.1-3.21,2.47-5.14.48-2.56-.64-4.69-2.96-5.6-1.69-.66-4.3-.6-5.8,1.43-.32.44-.6.92-.89,1.38-.07.11-.14.22-.23.37-.29-.46-.53-.86-.8-1.24C7.44-.18,4.03-.64,1.68,1.32.07,2.66-.27,4.42.19,6.39c.39,1.68,1.25,3.14,2.27,4.51,1.82,2.44,4.02,4.52,6.24,6.58.49.45.98.9,1.45,1.33Z"/><path class="cls-2" d="m10.14,18.81c-.47-.43-.96-.88-1.45-1.33-2.22-2.06-4.42-4.14-6.24-6.58-1.02-1.37-1.87-2.83-2.27-4.51-.46-1.97-.12-3.73,1.49-5.07,2.35-1.96,5.76-1.49,7.52.99.27.38.51.79.8,1.24.09-.14.16-.26.23-.37.3-.46.57-.94.89-1.38C12.63-.23,15.24-.28,16.93.38c2.32.91,3.44,3.04,2.96,5.6-.36,1.93-1.32,3.59-2.47,5.14-1.83,2.48-4.03,4.61-6.23,6.75-.31.3-.62.6-.93.89-.02.02-.05.02-.11.05Z"/></g></svg>