<?xml version="1.0" encoding="UTF-8"?><svg id="Layer_1" xmlns="http://www.w3.org/2000/svg" viewBox="0 0 300 138.18"><defs><style>.cls-1{fill:#f08312;}.cls-1,.cls-2{stroke-width:0px;}.cls-2{fill:#fff;}</style></defs><path class="cls-1" d="m236.68,5.52s-.05.08-.07.12l-27.7,46.35c-.16.28-.2.62-.11.94.49,1.62,1.59,5.53,1.15,6.75,0,0,.25,1.49-8.28,14.42-1.47,2.22-3.19,4.78-5.23,7.74-.05.07-.14.09-.22.07l-.8-.3c-.11-.04-.15-.16-.11-.26l4.76-9.07,3.47-6.62c.12-.22.11-.49-.05-.69-.11-.14-.28-.26-.56-.26-.23,0-.44.13-.55.33l-3.63,6.14-4.45,7.52c-.12-.29-.27-.56-.45-.82-.06-.1-.13-.19-.2-.28l3.87-7.23,3.29-6.15c.06-.12.09-.25.07-.39-.05-.2-.12-.34-.21-.44-.01,0-.02-.01-.02-.02-.01-.02-.02-.03-.04-.03l-.03-.03s-.02-.02-.03-.02c-.01,0-.02-.01-.03-.02-.02,0-.03-.01-.04-.02s-.02-.01-.03-.02c-.02,0-.03-.01-.04-.01-.02,0-.03-.01-.04-.02-.01,0-.02,0-.03,0-.13-.03-.28-.02-.48.05-.13.06-.23.15-.29.27l-3.53,6.07-3.94,6.79c-.33-.16-.69-.28-1.08-.37l3.65-6.96,3.37-6.42c.11-.2.11-.45-.02-.65-.14-.23-.34-.32-.51-.33-.25-.03-.49.11-.61.32l-3.9,6.61-4.34,7.34c-.64.09-1.24.3-1.79.6,1.4-3.2,2.65-5.95,3.75-8.33,6.58-14.23,7.99-14.8,7.99-14.8.81-1.01,4.71-2.13,6.35-2.57.32-.08.58-.3.74-.59L230.6,2.29s.04-.08.06-.12c1.06-1.9,3.26-2.72,4.93-1.79,1.67.93,2.13,3.24,1.08,5.14Z"/><path class="cls-2" d="m53.96,76.57c-10.75-.77-17.11,7.44-17.77,16.67-.63,8.75,3.77,17.4,16.15,18.29,4.5.32,8.58-.85,11-2.14.9-.48,1.31-1.53.99-2.49-.42-1.25-1.09-2.92-1.66-4.2-.46-1.01-1.64-1.47-2.68-1.05-1.67.69-3.79,1.22-6.47,1.02-3.5-.25-5.75-1.67-6.57-3.86-.45-1.2.54-2.46,1.82-2.34,3.76.33,9.78.75,13.97.88,2.39.08,4.45-1.69,4.71-4.06.04-.37.08-.76.11-1.16.55-7.67-4.5-14.91-13.6-15.56Zm2.16,13.88l-7.27-.38c-1.08-.06-1.77-1.16-1.39-2.16.92-2.36,3.07-3.87,5.88-3.67,2.68.18,4.18,2.04,4.44,4.53.1.94-.71,1.73-1.66,1.68Z"/><path class="cls-2" d="m115.94,77.67c-1.07-.14-2.81-.3-4.55-.42-1.74-.05-3.49-.05-4.57,0-.61.03-1.1.51-1.14,1.12-.28,4.98-.93,26.9-.95,31.73,0,.6.45,1.11,1.05,1.18.97.12,2.49.22,4.01.27,1.53.08,3.05.13,4.02.1.6-.02,1.1-.48,1.15-1.08.43-4.8,1.81-26.69,1.99-31.68.03-.61-.42-1.14-1.02-1.22Z"/><path class="cls-2" d="m285.32,76.6c-10.77,0-16.53,8.64-16.53,17.9,0,8.78,5.01,17.08,17.42,17.08,4.55,0,8.55-1.48,10.87-2.95.84-.53,1.14-1.61.75-2.52-.5-1.21-1.29-2.84-1.95-4.07-.53-.98-1.74-1.35-2.75-.85-1.61.79-3.69,1.48-6.37,1.48-3.52,0-5.86-1.25-6.83-3.38-.53-1.17.36-2.49,1.64-2.47,3.78.06,9.82.04,14-.12,2.39-.09,4.31-2,4.4-4.39.02-.38.02-.76.02-1.17,0-7.68-5.55-14.54-14.68-14.54Zm3.16,13.68l-7.28.14c-1.08.02-1.85-1.02-1.54-2.05.74-2.42,2.79-4.08,5.6-4.08s4.32,1.74,4.76,4.2c.16.93-.59,1.78-1.53,1.8Z"/><path class="cls-2" d="m97.87,97.47c-.64-.51-1.56-.47-2.14.12-1.13,1.14-3.14,2.98-5.42,3.68-2.82.87-7.55,1.1-9.48-5.19-1.55-5.04.53-8.55,5.18-9.98,2.6-.8,5.43-.16,7.11.25.92.23,1.85-.4,1.97-1.35.31-2.6-.04-7.35-.37-7.9-.4-.59-5.52-2.1-12.47.04-10.61,3.27-14.47,13.35-11.92,21.6,2.54,8.26,10.11,15.61,22.43,11.82,5.04-1.56,8.84-5.3,9.67-8.65-.97-1.08-3.11-3.29-4.55-4.45Z"/><path class="cls-2" d="m222.57,75.33c-9.48-.57-14.56,5.8-14.7,7-.12.77,4.51,5.31,5.15,5.35.64-.03,2.88-3.03,7.27-2.76,5.23.31,5.9,3.17,5.84,5.87-.02.74-.8,1.16-1.44.79-1.21-.69-2.85-1.25-5.14-1.38-7.08-.43-12.91,3.27-13.29,9.64-.37,6.16,2.61,10.88,10.33,11.35,3.99.24,6.75-1.33,8.19-2.42.5-.38,1.23-.07,1.32.56l.07.46c.09.67.63,1.18,1.3,1.25,2.41.24,7.81.75,7.99.43.24-.41,1.3-12.14,1.76-19.71.62-10.34-5.86-15.91-14.64-16.44Zm2.45,25.43c-.13,2.12-1.8,3.87-4.91,3.68-2.62-.16-4.5-1.9-4.36-4.24.14-2.26,2.09-3.92,4.84-3.76,2.62.16,4.58,1.84,4.43,4.31Z"/><path class="cls-2" d="m150.84,84.77c-3.41-6-8.8-8.2-15.58-7.18-3.4.51-6.81.98-10.24,1.21-4.19.28-5.51,2.43-4.92,6.33l6.27,42.7c.67,5.03,3.75,3.82,6.8,3.48,3.16-.35,6.01-.76,5.09-5.23-.64-3.1-1.1-6.23-1.5-8.9-.28-1.84.5-3.68,2.03-4.75,4.25-2.95,8.13-5.23,10.86-8.49,4.73-5.67,4.89-12.65,1.19-19.16Zm-14.87,16c-.9.21-1.8-.38-1.95-1.3l-1.5-9.29c-.14-.85.42-1.66,1.26-1.82,4.58-.88,6.31.32,6.92,4.27.69,4.54-.8,7.21-4.72,8.13Z"/><path class="cls-2" d="m254.11,68.34c4.46,0,7.8,2.19,10.16,5.72.77,1.16-.84,2.81-1.3,3.25-1.8,1.74-2.24,3.23-4.24,3.02-1.99-.21-3.95-3.72-5.97-.69-1.87,2.82.87,4.75,2.63,6.62,2.68,2.86,5.74,5.44,8.03,8.58,3.84,5.25,3.47,12.15-.37,16.79-3.81,4.61-10.85,6.31-16.39,3.49-2.09-1.06-4.11-2.91-5.35-4.9-3.08-4.95-.94-8.41,4.91-8.25.9.02,2.06.98,2.6,1.83,1.54,2.37,3.55,3.55,5.83,1.63,2.16-1.82,1.61-4.28-.2-6.26-2.65-2.9-5.5-5.62-8.11-8.56-3.62-4.07-5.25-8.71-3.47-14.14,1.71-5.22,5.74-8.13,11.23-8.12Z"/><path class="cls-2" d="m180.38,116.67v3.73c0,1.92-1.63,3.45-3.55,3.28-3.41-.3-8.69-1.77-13.08-7.38-4.29-5.48-7.74-14.93-7.75-31.13v-.08s1.63-27.03,1.63-27.03c.1-1.58,1.45-2.78,3.03-2.68l5.75.34c1.58.1,2.78,1.45,2.69,3.04l-1.64,27.14s0,.1-.02.28c0,.04,0,.1,0,.15-.02.17-.03.37-.04.63,0,.08,0,.16,0,.24-.19,4.8-.02,21.47,11.04,26.47,1.18.53,1.94,1.7,1.94,3Z"/><path class="cls-2" d="m122.04,118.72c-1.28-3-3.12-4.83-6.93-3.49-5.17,1.82-24.25,7.54-29.56,8.82-22.63,5.51-41.23-.34-55.18-19.62-2.32-3.22-2.45-5.21.3-8.3,5.75-6.45,5.43-13.37-.12-18.47-8.63-7.93-20.61-5.3-28.98-.43-1.02.59-1.68,2.81-1.57,4.2.92,11.38,2.02,22.75,3.25,34.1.14,1.22,1.13,2.87,2.18,3.38,5.63,2.77,11.07-.88,10.68-6.95-.05-.88-.01-1.77-.01-3.73,2.19,2.74,3.74,4.89,5.5,6.84,9.15,10.15,19.13,18.9,33.11,22.02,18.03,4.04,48.47-4.08,64.73-11.66,3.46-1.61,3.87-3.76,2.6-6.73ZM15.77,94.69c-.92.15-1.77-.36-1.85-1.12l-.83-7.72c-.07-.69.54-1.35,1.38-1.47,4.62-.6,6.26.43,6.58,3.71.36,3.78-1.32,5.95-5.28,6.6Z"/><circle class="cls-2" cx="111.81" cy="68.36" r="5.65"/><path class="cls-2" d="m202.51,75.44c-.25-.46-.54-.91-.85-1.33-.12-.16-.23-.31-.35-.46-.37-.48-.79-.94-1.25-1.37-.05-.04-.1-.09-.15-.14-.36-.35-.75-.67-1.16-.98-.08-.06-.16-.12-.25-.17-.32-.23-.64-.44-.97-.64-.2-.12-.42-.24-.63-.35-.27-.15-.56-.28-.84-.41-.28-.13-.56-.25-.85-.36-.17-.06-.34-.13-.51-.18-.47-.16-.96-.3-1.47-.43-.07-.02-.14-.04-.21-.05-.26-.07-.54-.12-.81-.17-.38-.07-.76-.13-1.14-.17-.14-.02-.29-.03-.43-.05-9.74-.95-16.32,6.24-17.89,14.9-1.56,8.64,1.89,17.69,14.11,19.9,4.48.81,8.68.08,11.21-.97.92-.38,1.41-1.38,1.2-2.35-.28-1.28-.77-3.02-1.2-4.35-.35-1.07-1.48-1.63-2.54-1.33-1.74.5-3.9.81-6.55.33-3.45-.63-5.54-2.28-6.12-4.55-.31-1.24.8-2.39,2.07-2.14,3.69.73,9.65,1.79,13.79,2.38,2.36.33,4.6-1.2,5.12-3.54.07-.37.15-.75.22-1.15.63-3.45.08-6.95-1.56-9.87Zm-9.62,6.98l-7.19-1.16c-1.07-.16-1.64-1.33-1.15-2.3.55-1.07,1.36-1.92,2.36-2.45.55-.3,1.15-.51,1.79-.6.63-.1,1.3-.09,2,.02l.09.02c.09.02.18.04.27.06.39.08.75.21,1.08.37.12.06.23.12.34.18.47.27.87.61,1.19,1.02.07.09.14.18.2.28.18.26.33.53.45.82.14.34.24.7.3,1.09.07.37.09.76.09,1.16,0,.95-.88,1.65-1.82,1.5Z"/></svg>