<?xml version="1.0" encoding="UTF-8"?><svg id="Layer_1" xmlns="http://www.w3.org/2000/svg" viewBox="0 0 1342.09 1023.94"><defs><style>.cls-1{fill:#fbce9d;stroke-width:0px;}</style></defs><path class="cls-1" d="m986.15,997.1c-334.67-51.43-552.19-233.18-632.59-569.55-13.35-56.16-4.02-83.55,50.04-109.83,113.06-54.72,147.16-149.56,100.83-248.75-12.35-26.51-27.76-49.38-45.5-68.98H57.21C37.81,61.15,18.75,122.42,0,183.78v339.24c49.49,11.85,100.47-15.03,120.15-73.12,4.18-12.16,9.65-23.79,20.54-50.19,14.24,49.01,23.19,86.42,35.95,122.34,66.71,187.18,152.3,360,322.73,479.43,11.01,7.72,22.62,15.21,34.76,22.46h685.83c-95.4-9.56-192.96-20.45-233.82-26.83ZM318.95,156.2c-16.08,52.77-50.71,72.62-107.56,59.4-13.19-3.04-21.81-14.62-18.71-25.32l31.75-108.37c2.86-9.74,14.69-15.17,26.7-12.04,65.42,17.49,81.72,40.42,67.82,86.33Z"/><path class="cls-1" d="m1308.37,886.56c-.19,2.04-1.78,3.7-3.86,4.01l-20.59,3.06c-2.72.42-5.19-1.62-5.28-4.29l-10.54-428.49c-.14-5.98-3.55-11.6-9.14-14.06-3.97-1.75-9.04-2.27-14.81.99-4.86,2.73-7.76,7.9-7.9,13.37l-11.23,431.04c-.06,2.41-2.1,4.35-4.58,4.34h-15.16c-2.51-.02-4.54-1.97-4.58-4.39l-6.95-430.02c-.04-3.27-1.1-6.49-3.04-9.12-3.32-3.62-6.53-5.74-9.58-6.71-.19-.07-.41-.11-.64-.18-.37-.09-.72-.2-1.07-.26-.32-.07-.63-.09-.92-.15-.3-.02-.6-.06-.88-.06-.32-.05-.61-.04-.94-.04-.32-.01-.63-.01-.92.03-.3.02-.58.04-.89.08-.3.04-.61.07-.9.14-.36.07-.74.16-1.09.26-.22.07-.45.11-.65.17-3.03.98-6.26,3.08-9.6,6.69-1.94,2.63-2.99,5.83-3.04,9.12l-7.76,429.99c-.05,2.44-2.09,4.38-4.59,4.38l-15.16-.02c-2.47,0-4.52-1.94-4.57-4.34l-10.41-431.06c-.14-5.48-3.03-10.65-7.89-13.4-5.76-3.25-10.84-2.75-14.79-1.02-5.61,2.46-9.04,8.08-9.17,14.06l-11.37,428.46c-.08,2.69-2.56,4.7-5.28,4.29l-20.58-3.1c-2.08-.31-3.68-1.98-3.86-4.03-55.26-588.04-23.85-627.28-23.85-627.28,5.33-30.93,74.54-100.5,104.04-128.98,5.77-5.54,8.89-13.16,8.65-21.04l-3.15-108.56h94.51l-3.36,108.63c-.26,7.88,2.85,15.52,8.62,21.07,29.44,28.53,98.52,98.23,103.78,129.18,0,0,31.35,39.3-25.03,627.24Z"/></svg>