<?xml version="1.0" encoding="UTF-8"?><svg id="Layer_1" xmlns="http://www.w3.org/2000/svg" viewBox="0 0 19.5 19.5"><defs><style>.cls-1{opacity:.25;}.cls-2{stroke-width:0px;}</style></defs><g class="cls-1"><path class="cls-2" d="m19.35,18.65l-5.36-5.36c1.25-1.41,2.01-3.26,2.01-5.29C16,3.58,12.42,0,8,0S0,3.58,0,8s3.58,8,8,8c2.03,0,3.88-.76,5.29-2.01l5.36,5.36c.09.1.22.15.35.15s.26-.05.35-.15c.2-.19.2-.51,0-.7Zm-6.07-6.07c-.21.25-.45.49-.7.7-1.23,1.08-2.83,1.72-4.58,1.72-3.86,0-7-3.14-7-7S4.14,1,8,1s7,3.14,7,7c0,1.75-.64,3.35-1.72,4.58Z"/></g></svg>