<?xml version="1.0" encoding="UTF-8"?><svg id="Layer_1" xmlns="http://www.w3.org/2000/svg" viewBox="0 0 248.98 114.68"><defs><style>.cls-1{fill:#f9b513;}.cls-1,.cls-2{stroke-width:0px;}.cls-2{fill:#f08312;}</style></defs><path class="cls-1" d="m196.43,4.59s-.04.07-.06.1l-22.99,38.47c-.14.24-.17.51-.09.78.41,1.35,1.32,4.59.96,5.6,0,0,.21,1.24-6.87,11.97-1.22,1.84-2.65,3.97-4.34,6.42-.04.06-.11.08-.18.06l-.67-.25c-.09-.03-.13-.14-.09-.22l3.95-7.53,2.88-5.5c.1-.18.09-.41-.04-.58-.09-.12-.24-.22-.46-.22-.19,0-.36.11-.46.27l-3.01,5.09-3.69,6.25c-.1-.24-.22-.47-.37-.68-.05-.08-.11-.16-.17-.24l3.21-6,2.73-5.1c.05-.1.07-.21.06-.32-.04-.17-.1-.28-.17-.36,0,0-.01,0-.02-.01,0-.01-.02-.02-.03-.03l-.02-.02s-.02-.01-.03-.02c0,0-.02,0-.03-.02-.01,0-.02,0-.03-.01s-.02,0-.03-.01c-.01,0-.02,0-.03,0-.01,0-.03,0-.03-.01,0,0-.02,0-.03,0-.1-.02-.24-.01-.4.04-.1.05-.19.13-.24.22l-2.93,5.04-3.27,5.63c-.27-.13-.57-.24-.89-.31l3.03-5.78,2.8-5.33c.09-.17.09-.37-.01-.54-.12-.19-.28-.26-.43-.27-.21-.02-.41.09-.51.27l-3.24,5.48-3.6,6.09c-.53.08-1.03.25-1.48.5,1.16-2.66,2.2-4.94,3.11-6.91,5.46-11.81,6.63-12.29,6.63-12.29.68-.84,3.91-1.77,5.27-2.13.27-.07.48-.25.61-.49L191.39,1.9s.03-.07.05-.1c.88-1.58,2.71-2.25,4.1-1.48,1.39.77,1.77,2.69.89,4.27Z"/><path class="cls-2" d="m44.78,63.55c-8.92-.64-14.2,6.18-14.75,13.84-.52,7.27,3.13,14.44,13.41,15.18,3.74.27,7.12-.7,9.13-1.78.75-.4,1.09-1.27.82-2.07-.35-1.03-.9-2.42-1.37-3.49-.38-.84-1.36-1.22-2.22-.87-1.38.57-3.14,1.01-5.37.85-2.91-.21-4.77-1.38-5.45-3.21-.37-1,.44-2.04,1.51-1.95,3.12.27,8.12.62,11.59.73,1.98.07,3.69-1.4,3.91-3.37.03-.31.07-.63.09-.96.46-6.36-3.73-12.37-11.29-12.92Zm1.8,11.52l-6.04-.31c-.89-.05-1.47-.96-1.16-1.8.76-1.96,2.55-3.21,4.88-3.04,2.22.15,3.47,1.69,3.69,3.76.08.78-.59,1.43-1.37,1.4Z"/><path class="cls-2" d="m96.23,64.46c-.89-.11-2.33-.25-3.77-.34-1.45-.04-2.9-.04-3.79,0-.51.02-.92.42-.94.93-.24,4.13-.77,22.33-.79,26.33,0,.5.37.92.87.98.8.1,2.06.18,3.33.23,1.27.07,2.53.1,3.34.08.5-.02.91-.4.96-.9.36-3.99,1.5-22.15,1.65-26.29.02-.51-.35-.94-.85-1.01Z"/><path class="cls-2" d="m236.8,63.57c-8.94,0-13.72,7.17-13.72,14.86,0,7.29,4.16,14.18,14.46,14.18,3.78,0,7.1-1.23,9.02-2.45.69-.44.94-1.33.62-2.09-.42-1.01-1.07-2.36-1.62-3.38-.44-.82-1.45-1.12-2.28-.71-1.34.66-3.06,1.23-5.29,1.23-2.92,0-4.86-1.04-5.67-2.81-.44-.97.3-2.07,1.36-2.05,3.14.05,8.15.03,11.62-.1,1.98-.08,3.58-1.66,3.65-3.64.01-.31.02-.63.02-.97,0-6.38-4.61-12.07-12.18-12.07Zm2.62,11.36l-6.04.11c-.9.02-1.54-.85-1.28-1.71.61-2.01,2.31-3.39,4.64-3.39s3.59,1.44,3.95,3.49c.14.77-.49,1.47-1.27,1.49Z"/><path class="cls-2" d="m81.23,80.89c-.53-.43-1.3-.39-1.78.1-.94.94-2.6,2.48-4.5,3.06-2.34.72-6.26.92-7.87-4.3-1.29-4.19.44-7.1,4.3-8.29,2.15-.66,4.51-.14,5.9.21.77.19,1.54-.33,1.63-1.12.26-2.15-.03-6.1-.31-6.55-.33-.49-4.58-1.74-10.35.03-8.81,2.71-12.01,11.08-9.9,17.93,2.11,6.85,8.39,12.95,18.61,9.81,4.19-1.29,7.34-4.4,8.03-7.18-.81-.89-2.58-2.73-3.77-3.69Z"/><path class="cls-2" d="m184.72,62.52c-7.87-.48-12.08,4.81-12.2,5.81-.1.64,3.75,4.41,4.27,4.44.53-.03,2.39-2.51,6.03-2.29,4.34.26,4.9,2.63,4.85,4.87-.02.61-.67.96-1.19.66-1.01-.57-2.36-1.03-4.27-1.15-5.87-.35-10.72,2.72-11.03,8-.31,5.11,2.17,9.03,8.57,9.42,3.31.2,5.6-1.1,6.8-2.01.42-.31,1.02-.06,1.1.46l.06.38c.08.55.52.98,1.08,1.04,2,.2,6.48.62,6.63.36.2-.34,1.08-10.07,1.46-16.36.51-8.58-4.87-13.21-12.15-13.64Zm2.03,21.11c-.1,1.76-1.49,3.21-4.08,3.06-2.17-.13-3.73-1.58-3.62-3.52.11-1.88,1.73-3.25,4.02-3.12,2.17.13,3.8,1.53,3.68,3.58Z"/><path class="cls-2" d="m125.19,70.36c-2.83-4.98-7.3-6.81-12.93-5.96-2.82.42-5.65.81-8.5,1-3.48.24-4.57,2.02-4.08,5.25l5.2,35.43c.55,4.18,3.11,3.17,5.65,2.89,2.63-.29,4.99-.63,4.22-4.34-.53-2.57-.92-5.17-1.25-7.39-.23-1.53.42-3.06,1.69-3.94,3.52-2.45,6.75-4.34,9.01-7.05,3.93-4.71,4.06-10.5.99-15.91Zm-12.34,13.28c-.75.17-1.5-.32-1.62-1.08l-1.25-7.71c-.11-.7.34-1.37,1.04-1.51,3.8-.73,5.24.26,5.74,3.55.57,3.77-.66,5.99-3.92,6.75Z"/><path class="cls-2" d="m210.9,56.72c3.7,0,6.48,1.82,8.43,4.75.64.96-.7,2.33-1.08,2.7-1.49,1.44-1.85,2.68-3.52,2.5-1.65-.17-3.28-3.09-4.95-.57-1.56,2.34.72,3.94,2.18,5.49,2.23,2.38,4.76,4.52,6.67,7.12,3.19,4.36,2.88,10.08-.31,13.93-3.16,3.82-9,5.23-13.6,2.9-1.74-.88-3.41-2.42-4.44-4.07-2.56-4.11-.78-6.98,4.08-6.85.75.02,1.71.82,2.16,1.52,1.28,1.97,2.95,2.95,4.84,1.35,1.79-1.51,1.33-3.56-.17-5.2-2.2-2.4-4.56-4.67-6.73-7.1-3.01-3.37-4.36-7.23-2.88-11.74,1.42-4.34,4.77-6.74,9.32-6.74Z"/><path class="cls-2" d="m149.7,96.83v3.1c0,1.59-1.36,2.86-2.94,2.73-2.83-.25-7.21-1.47-10.85-6.12-3.56-4.55-6.42-12.39-6.43-25.84v-.07s1.35-22.44,1.35-22.44c.08-1.31,1.2-2.31,2.51-2.22l4.77.28c1.31.08,2.31,1.2,2.23,2.52l-1.36,22.52s0,.08-.01.23c0,.04,0,.08,0,.13-.01.14-.02.31-.03.52,0,.07,0,.13,0,.2-.16,3.98-.02,17.82,9.16,21.97.98.44,1.61,1.41,1.61,2.49Z"/><path class="cls-2" d="m101.29,98.53c-1.06-2.49-2.59-4.01-5.75-2.9-4.29,1.51-20.12,6.26-24.54,7.32-18.78,4.57-34.22-.28-45.79-16.28-1.93-2.67-2.03-4.32.25-6.89,4.78-5.35,4.51-11.1-.1-15.33-7.17-6.59-17.1-4.4-24.05-.35-.85.49-1.4,2.33-1.3,3.48.77,9.45,1.67,18.88,2.7,28.3.11,1.01.94,2.38,1.81,2.81,4.67,2.3,9.19-.73,8.86-5.77-.04-.73,0-1.47,0-3.1,1.82,2.28,3.11,4.06,4.56,5.67,7.6,8.43,15.88,15.68,27.48,18.27,14.96,3.35,40.23-3.39,53.73-9.68,2.87-1.34,3.21-3.12,2.15-5.58ZM13.09,78.59c-.76.13-1.47-.3-1.54-.93l-.68-6.41c-.06-.58.44-1.12,1.15-1.22,3.83-.5,5.19.35,5.46,3.08.3,3.14-1.09,4.94-4.38,5.48Z"/><circle class="cls-2" cx="92.79" cy="56.74" r="4.69"/><path class="cls-2" d="m168.07,62.61c-.21-.38-.44-.75-.7-1.11-.1-.13-.19-.26-.29-.38-.31-.4-.66-.78-1.03-1.14-.04-.03-.08-.07-.12-.11-.3-.29-.62-.56-.96-.81-.07-.05-.14-.1-.21-.14-.26-.19-.53-.36-.81-.53-.17-.1-.34-.2-.52-.29-.23-.12-.46-.24-.7-.34-.23-.11-.47-.2-.71-.3-.14-.05-.28-.1-.42-.15-.39-.14-.8-.25-1.22-.35-.06-.01-.11-.03-.17-.04-.22-.06-.44-.1-.68-.14-.32-.06-.63-.11-.94-.14-.12-.01-.24-.03-.36-.04-8.09-.79-13.55,5.18-14.85,12.36-1.3,7.17,1.57,14.68,11.71,16.52,3.72.67,7.2.07,9.31-.8.76-.31,1.17-1.15.99-1.95-.23-1.06-.64-2.5-.99-3.61-.29-.89-1.23-1.36-2.11-1.1-1.44.41-3.24.67-5.43.27-2.87-.52-4.6-1.89-5.08-3.77-.26-1.03.67-1.98,1.71-1.78,3.07.61,8.01,1.49,11.45,1.97,1.96.27,3.82-1,4.25-2.94.06-.31.13-.62.18-.95.52-2.87.07-5.77-1.3-8.19Zm-7.99,5.8l-5.97-.96c-.89-.14-1.36-1.11-.96-1.91.46-.89,1.13-1.59,1.96-2.04.45-.25.95-.42,1.48-.5.52-.08,1.08-.08,1.66.02h.07c.08.03.15.04.23.07.32.07.62.17.89.31.1.05.19.1.28.15.39.22.72.51.99.85.06.07.11.15.17.24.15.21.27.44.37.68.11.28.2.58.25.9.06.31.08.63.08.96,0,.79-.73,1.37-1.51,1.24Z"/></svg>